<svg xmlns="http://www.w3.org/2000/svg" width="370.212" height="803.658" viewBox="0 0 370.212 803.658">
  <path id="Path_790" data-name="Path 790" d="M767.7,115.529c-.525,1.574-.633,16.461,3.971,32.163,3.8,12.958,12.347,25.657,12.666,41.355.583,28.713-14.955,54.72-16.637,64.812-3.633,21.8,17.968,58.513,8.886,65.779s-61.757,47.226-92.635,23.613-78.1-69.022-96.268-74.471-62.509,7.019-81.662,26.172S477.97,331.4,477.97,331.4s.575,102.527,0,218.967c-.26,52.574-.778,158.892-.778,158.892s.116,168.277,3.01,185.155a124.7,124.7,0,0,0,4.645,12.388c9.082,10.9,24.734,11.355,24.734,11.355s-7.266-31.809,0-39.075,36.328-27.246,36.328-36.328-9.082-34.511,0-47.226,49.042-38.144,83.553-30.878S700.3,795.529,700.3,795.529l12.719,12.142s9.814,5.234,17.665,2.617,26.825-7.2,30.1-7.2,23.553,7.2,26.17,10.468,22.9,13.74,27.479,24.208,9.814,21.591,9.814,30.1-1.963,27.068-3.926,31.2-3.925,22.207,3.926,18.935,21.942-16.172,22.6-21.407,0-48.447,0-48.447l.563-417.993s-47.119-15.364-52.651-36.64-3.586-36.7,0-50.261,19.8-27.749,24.861-33.827,28.591-2.094,27.578-12.207,0-151.235,0-151.235-8.994-28.665-27.578-30.453S767.7,115.529,767.7,115.529Z" transform="translate(-477.192 -114.734)" fill="#ff7200"/>
</svg>
